<mxfile host="app.diagrams.net" agent="Mozilla/5.0 (X11; Linux x86_64) AppleWebKit/537.36 (KHTML, like Gecko) Chrome/135.0.0.0 Safari/537.36" version="26.2.14">
  <diagram id="VSMmOakG7HgEaBmrVLPr" name="Page-1">
    <mxGraphModel dx="711" dy="443" grid="1" gridSize="10" guides="1" tooltips="1" connect="1" arrows="1" fold="1" page="1" pageScale="1" pageWidth="827" pageHeight="1169" math="0" shadow="0">
      <root>
        <mxCell id="0" />
        <mxCell id="1" parent="0" />
        <mxCell id="QNLwYMJ4eeT8anXHTI-m-2" value="Run the Pod" style="rounded=0;orthogonalLoop=1;jettySize=auto;html=1;entryX=0.25;entryY=0;entryDx=0;entryDy=0;" parent="1" source="byd_hMHjK4NzhJd2uJQ8-1" target="QNLwYMJ4eeT8anXHTI-m-1" edge="1">
          <mxGeometry relative="1" as="geometry" />
        </mxCell>
        <mxCell id="byd_hMHjK4NzhJd2uJQ8-1" value="kubelet" style="rounded=0;whiteSpace=wrap;html=1;" parent="1" vertex="1">
          <mxGeometry x="160" y="40" width="120" height="40" as="geometry" />
        </mxCell>
        <mxCell id="QNLwYMJ4eeT8anXHTI-m-1" value="" style="rounded=0;whiteSpace=wrap;html=1;" parent="1" vertex="1">
          <mxGeometry x="170" y="120" width="320" height="170" as="geometry" />
        </mxCell>
        <mxCell id="QNLwYMJ4eeT8anXHTI-m-15" value="Init&lt;br&gt;container(s)" style="rounded=0;whiteSpace=wrap;html=1;dashed=1;strokeColor=#000000;verticalAlign=middle;dashPattern=1 1;fillColor=none;align=left;" parent="1" vertex="1">
          <mxGeometry x="90" y="130" width="410" height="60" as="geometry" />
        </mxCell>
        <mxCell id="QNLwYMJ4eeT8anXHTI-m-8" value="copy&lt;br&gt;ca-certs" style="edgeStyle=none;rounded=0;orthogonalLoop=1;jettySize=auto;html=1;strokeColor=#990000;" parent="1" source="QNLwYMJ4eeT8anXHTI-m-3" target="QNLwYMJ4eeT8anXHTI-m-7" edge="1">
          <mxGeometry relative="1" as="geometry" />
        </mxCell>
        <mxCell id="QNLwYMJ4eeT8anXHTI-m-6" value="main container" style="rounded=0;whiteSpace=wrap;html=1;" parent="1" vertex="1">
          <mxGeometry x="185" y="220" width="105" height="50" as="geometry" />
        </mxCell>
        <mxCell id="QNLwYMJ4eeT8anXHTI-m-9" value="mount&lt;br&gt;to /etc/ssl/certs*" style="edgeStyle=none;rounded=0;orthogonalLoop=1;jettySize=auto;html=1;strokeColor=#990000;" parent="1" source="QNLwYMJ4eeT8anXHTI-m-7" target="QNLwYMJ4eeT8anXHTI-m-6" edge="1">
          <mxGeometry relative="1" as="geometry" />
        </mxCell>
        <mxCell id="QNLwYMJ4eeT8anXHTI-m-11" style="edgeStyle=none;rounded=0;orthogonalLoop=1;jettySize=auto;html=1;strokeColor=#990000;" parent="1" source="QNLwYMJ4eeT8anXHTI-m-7" target="QNLwYMJ4eeT8anXHTI-m-10" edge="1">
          <mxGeometry relative="1" as="geometry" />
        </mxCell>
        <mxCell id="QNLwYMJ4eeT8anXHTI-m-7" value="&lt;font style=&quot;font-size: 7px ; line-height: 20%&quot;&gt;emptydir&lt;/font&gt;" style="shape=cylinder3;whiteSpace=wrap;html=1;boundedLbl=1;backgroundOutline=1;size=5;strokeColor=#990000;" parent="1" vertex="1">
          <mxGeometry x="340" y="145" width="30" height="30" as="geometry" />
        </mxCell>
        <mxCell id="QNLwYMJ4eeT8anXHTI-m-10" value="other container" style="rounded=0;whiteSpace=wrap;html=1;dashed=1;" parent="1" vertex="1">
          <mxGeometry x="375" y="220" width="105" height="50" as="geometry" />
        </mxCell>
        <mxCell id="QNLwYMJ4eeT8anXHTI-m-13" style="edgeStyle=none;rounded=0;orthogonalLoop=1;jettySize=auto;html=1;strokeColor=#990000;" parent="1" source="QNLwYMJ4eeT8anXHTI-m-12" target="QNLwYMJ4eeT8anXHTI-m-3" edge="1">
          <mxGeometry relative="1" as="geometry" />
        </mxCell>
        <mxCell id="QNLwYMJ4eeT8anXHTI-m-12" value="ca-cert secret" style="shape=note;whiteSpace=wrap;html=1;backgroundOutline=1;darkOpacity=0.05;size=15;verticalAlign=bottom;strokeColor=#990000;" parent="1" vertex="1">
          <mxGeometry x="360" y="40" width="40" height="50" as="geometry" />
        </mxCell>
        <mxCell id="QNLwYMJ4eeT8anXHTI-m-16" value="Container(s)" style="rounded=0;whiteSpace=wrap;html=1;dashed=1;strokeColor=#000000;verticalAlign=middle;dashPattern=1 1;fillColor=none;align=left;" parent="1" vertex="1">
          <mxGeometry x="90" y="210" width="410" height="70" as="geometry" />
        </mxCell>
        <mxCell id="QNLwYMJ4eeT8anXHTI-m-3" value="cain init container" style="rounded=0;whiteSpace=wrap;html=1;strokeColor=#990000;" parent="1" vertex="1">
          <mxGeometry x="185" y="140" width="75" height="40" as="geometry" />
        </mxCell>
        <mxCell id="QNLwYMJ4eeT8anXHTI-m-4" value="other init container" style="rounded=0;whiteSpace=wrap;html=1;dashed=1;" parent="1" vertex="1">
          <mxGeometry x="410" y="145" width="70" height="30" as="geometry" />
        </mxCell>
      </root>
    </mxGraphModel>
  </diagram>
</mxfile>
